<svg xmlns="http://www.w3.org/2000/svg" width="46" height="36" viewBox="0 0 46 36">
    <g fill="#FFF" fill-rule="evenodd">
        <path d="M14.5.244c8.008 0 14.5 6.344 14.5 14.17 0 7.068-5.297 12.928-12.223 13.995v7.835L4.55 24.724C1.75 22.142 0 18.478 0 14.415 0 6.587 6.492.243 14.5.243z" transform="translate(0 -.244)"/>
        <path d="M31.5.244c8.008 0 14.5 6.344 14.5 14.17 0 7.068-5.297 12.928-12.223 13.995v7.835L21.55 24.724c-2.8-2.583-4.55-6.247-4.55-10.31C17 6.587 23.492.243 31.5.243z" opacity=".6" transform="translate(0 -.244)"/>
    </g>
</svg>
