<?xml version="1.0" encoding="UTF-8"?>
<svg width="21px" height="16px" viewBox="0 0 21 16" version="1.1" xmlns="http://www.w3.org/2000/svg" xmlns:xlink="http://www.w3.org/1999/xlink">
    <!-- Generator: Sketch 52.3 (67297) - http://www.bohemiancoding.com/sketch -->
    <title>Combined Shape</title>
    <desc>Created with Sketch.</desc>
    <g id="267px-(DESKTOP/MOBILE)-width-ChatBot-UI-stencil" stroke="none" stroke-width="1" fill="none" fill-rule="evenodd">
        <g id="Desktop-1024px" transform="translate(-990.000000, -853.000000)" fill="#9B9B9B">
            <g id="np_paper-plane_430429_000000" transform="translate(990.000000, 853.000000)">
                <path d="M10.8189635,12.8973584 L10.8190341,12.8974489 C10.9304182,12.9590424 10.9533754,13.08555 10.8691996,13.1791937 L8.76991882,15.5441009 C8.10416526,16.2932545 7.56,16.0985692 7.56,15.1112005 L7.5608502,15.1112005 L7.5608502,11.3670094 C7.5608502,11.218329 7.66883871,11.1575429 7.80232898,11.231472 L10.8189635,12.8973584 Z M19.9349667,0.0690506131 L19.9347707,0.0691216873 C20.7140418,-0.169212217 21.167933,0.228845864 20.9418985,0.954701371 L16.7138005,14.5320057 C16.5260431,15.1357806 15.885307,15.3749409 15.2910493,15.0630281 L7.87198668,11.1736448 C7.72889259,11.0983747 7.71066284,10.9553851 7.83279493,10.8525267 L16.3974876,3.67082588 C16.9051603,3.24517946 16.8595918,3.19332958 16.2963198,3.55458752 L6.17861019,10.0471687 C6.06558714,10.119923 5.87783448,10.1274478 5.75843696,10.0655662 L0.669133123,7.39707425 C-0.282393101,6.89784253 -0.210388738,6.22968126 0.829544658,5.91190272 L19.9349667,0.0690506131 Z" id="Combined-Shape"></path>
            </g>
        </g>
    </g>
</svg>