<svg width="22" height="23" viewBox="0 0 22 23" fill="none" xmlns="http://www.w3.org/2000/svg">
<path fill-rule="evenodd" clip-rule="evenodd" d="M5.69237 1.36522C2.1795 3.3004 -0.00172316 6.99411 1.02143e-06 11.0047C1.02143e-06 11.557 0.447716 12.0047 1 12.0047C1.55229 12.0047 2 11.557 2 11.0047C1.99788 7.80482 3.69608 4.84475 6.45956 3.23147C9.22303 1.61819 12.6356 1.59468 15.421 3.16974L14.293 4.29774C14.0071 4.58373 13.9216 5.01377 14.0763 5.38739C14.2311 5.76101 14.5956 6.00465 15 6.00474H19C19.5523 6.00474 20 5.55702 20 5.00474V1.00474C20.0011 0.599793 19.7579 0.234143 19.384 0.0786284C19.0102 -0.0768858 18.5794 0.00843879 18.293 0.294736L16.882 1.70474C13.4929 -0.439857 9.20523 -0.569952 5.69237 1.36522ZM20 11.0047C20 10.4525 20.4477 10.0047 21 10.0047C21.2652 10.0047 21.5196 10.1101 21.7071 10.2976C21.8946 10.4852 22 10.7395 22 11.0047C21.9928 17.0769 17.0722 21.9976 11 22.0047C8.91711 22.0122 6.87577 21.4222 5.118 20.3047L3.707 21.7117C3.51951 21.8993 3.2652 22.0047 3 22.0047C2.86855 22.0052 2.73833 21.9793 2.617 21.9287C2.24341 21.7738 1.9999 21.4092 2 21.0047V17.0047C2 16.4525 2.44772 16.0047 3 16.0047H7C7.4044 16.0048 7.76893 16.2485 7.92368 16.6221C8.07842 16.9957 7.99291 17.4257 7.707 17.7117L6.58 18.8387C7.92669 19.6056 9.45028 20.0075 11 20.0047C15.9683 19.9992 19.9945 15.973 20 11.0047Z" fill="white"/>
</svg>
