<?xml version="1.0" encoding="UTF-8"?>
<svg width="25px" height="33px" viewBox="0 0 25 33" version="1.1" xmlns="http://www.w3.org/2000/svg" xmlns:xlink="http://www.w3.org/1999/xlink">
    <!-- Generator: Sketch 60 (88103) - https://sketch.com -->
    <title>Fill 1</title>
    <desc>Created with Sketch.</desc>
    <g id="Page-1" stroke="none" stroke-width="1" fill="none" fill-rule="evenodd">
        <g id="Desktop-HD-Copy-15" transform="translate(-1225.000000, -52.000000)" fill="#FFFFFF">
            <path d="M1237.49417,59.6965652 L1231.55545,59.6965652 L1235.97519,55.2944765 C1236.72949,54.5414523 1236.72949,53.3187479 1235.97519,52.5657238 C1235.22216,51.8114254 1233.99946,51.8114254 1233.24643,52.5657238 L1225.55805,60.2541043 L1225.55805,60.2528301 C1224.81398,61.0033057 1224.81398,62.2132348 1225.55805,62.9637071 L1233.24643,70.6520876 L1233.24643,70.6508134 C1233.99436,71.4051118 1235.21194,71.4089346 1235.96623,70.6610238 C1236.71926,69.9118225 1236.72436,68.6942478 1235.97517,67.9412237 L1231.55543,63.5391349 L1237.49415,63.5391349 C1239.55284,63.5365831 1241.545,64.2691896 1243.11365,65.6041925 C1244.68097,66.9391955 1245.72116,68.7898502 1246.04534,70.8231166 C1246.3708,72.856285 1245.95983,74.939313 1244.88645,76.6968159 C1243.81306,78.4530118 1242.14878,79.7701423 1240.19095,80.4094957 C1238.23437,81.0489143 1236.11331,80.9697793 1234.20878,80.184866 C1232.30581,79.3999526 1230.74376,77.9615383 1229.80538,76.1287886 C1229.5833,75.6591083 1229.17998,75.3004523 1228.6886,75.1332624 C1228.19595,74.966066 1227.65737,75.004356 1227.19406,75.2417479 C1226.73202,75.4778656 1226.38487,75.8913934 1226.23173,76.3878659 C1226.07985,76.8843384 1226.13473,77.4216853 1226.38488,77.877316 C1227.73903,80.5256594 1229.99432,82.6035247 1232.74346,83.7369654 C1235.49263,84.871615 1238.55704,84.9877363 1241.38394,84.0649738 C1244.21094,83.140937 1246.61691,81.240521 1248.16759,78.7019603 C1249.71831,76.1646738 1250.31306,73.1563021 1249.84338,70.2196158 C1249.37497,67.2815573 1247.87406,64.6089376 1245.60989,62.6792458 C1243.34572,60.7507631 1240.46775,59.6927 1237.49381,59.6965228 L1237.49417,59.6965652 Z" id="Fill-1"></path>
        </g>
    </g>
</svg>